#!OML:ASF E:\Steps\Project 1\Capture day 1\Session 2\Subject.ASF
:FULLY-SPECIFIED
:DEGREES
444
root 12.0259 17.0478 7.54126 -154.251 -2.38162 177.181
lowerback -32.7921 -2.34475 -7.36454
upperback -3.57485 -1.65791 -0.354601
thorax 13.0053 -1.64242 2.77239
lowerneck -4.20938 -1.05628 -0.256015
upperneck -1.09601 -1.463 1.20984
head 0.365963 -0.74846 0.386163
rclavicle 1.07965e-014 -7.95139e-015
rhumerus -38.0579 -21.0494 -77.5362
rradius 24.8967
rwrist 1.68723
rhand -5.44299 -51.4692
rfingers 7.12502
rthumb 20.3677 -80.4211
lclavicle 1.07965e-014 -7.95139e-015
lhumerus -32.0891 11.6122 76.7839
lradius 13.6868
lwrist -14.9155
lhand -21.6362 -11.5007
lfingers 7.12502
lthumb 4.76006 18.4259
rfemur -19.2382 5.24997 20.9164
rtibia 9.61972
rfoot -24.1826 -5.4535
rtoes -18.0814
lfemur -19.7616 -7.20377 -23.5088
ltibia 8.4297
lfoot -9.48546 -4.45487
ltoes -16.9358
445
root 12.0223 17.0476 7.54234 -154.26 -2.38852 177.144
lowerback -32.7871 -2.40286 -7.42065
upperback -3.56835 -1.71384 -0.342592
thorax 13.0168 -1.67045 2.79234
lowerneck -4.30625 -0.950996 -0.272433
upperneck -1.00515 -1.32142 1.17617
head 0.408681 -0.67674 0.380278
rclavicle -1.41883e-014 -2.34566e-014
rhumerus -38.1951 -22.0599 -76.7895
rradius 24.1939
rwrist 2.73888
rhand -5.28542 -52.0704
rfingers 7.12502
rthumb 20.5192 -81.0061
lclavicle -1.41883e-014 -2.34566e-014
lhumerus -32.2597 12.5954 76.0724
lradius 13.195
lwrist -15.8953
lhand -21.7283 -11.5256
lfingers 7.12502
lthumb 4.67109 18.4029
rfemur -19.2015 5.19453 20.871
rtibia 9.57531
rfoot -24.1739 -5.45099
rtoes -18.194
lfemur -19.7172 -7.06472 -23.5924
ltibia 8.34504
lfoot -9.42297 -4.65165
ltoes -16.6874
446
root 12.0168 17.0456 7.5421 -154.221 -2.40911 177.16
lowerback -33.1104 -2.46186 -7.40342
upperback -3.39672 -1.7435 -0.315177
thorax 13.3521 -1.68668 2.78837
lowerneck -4.42433 -0.830075 -0.356138
upperneck -1.10022 -1.16091 1.23673
head 0.398995 -0.597982 0.414801
rclavicle 8.7341e-015 1.23246e-014
rhumerus -38.1206 -23.1569 -76.0689
rradius 23.502
rwrist 3.93079
rhand -4.75946 -52.8909
rfingers 7.12502
rthumb 21.0245 -81.7713
lclavicle 8.7341e-015 1.23246e-014
lhumerus -32.1907 13.7425 75.3709
lradius 12.6578
lwrist -16.9667
lhand -21.6317 -11.4952
lfingers 7.12502
lthumb 4.76438 18.4312
rfemur -19.2294 5.03172 20.8996
rtibia 9.5686
rfoot -24.1893 -5.33266
rtoes -18.2851
lfemur -19.7074 -6.92109 -23.6296
ltibia 8.24306
lfoot -9.32517 -4.80171
ltoes -16.6241
447
root 12.0121 17.0424 7.5433 -154.172 -2.33802 177.13
lowerback -32.9773 -2.47715 -7.47564
upperback -3.54831 -1.78509 -0.306676
thorax 13.1262 -1.71171 2.82369
lowerneck -4.28538 -0.774835 -0.546419
upperneck -1.22229 -1.08136 1.58617
head 0.342242 -0.557203 0.554813
rclavicle -1.09829e-014 8.74653e-015
rhumerus -38.523 -23.8896 -75.313
rradius 22.9162
rwrist 4.79773
rhand -5.01235 -52.1818
rfingers 7.12502
rthumb 20.7815 -81.0889
lclavicle -1.09829e-014 8.74653e-015
lhumerus -32.6554 14.8126 74.532
lradius 12.2583
lwrist -17.9784
lhand -21.5136 -11.5128
lfingers 7.12502
lthumb 4.87846 18.411
rfemur -19.3613 5.01726 20.8243
rtibia 9.7027
rfoot -24.2517 -5.28077
rtoes -18.1755
lfemur -19.7175 -6.83565 -23.7107
ltibia 8.16575
lfoot -9.31276 -4.86741
ltoes -16.5965
448
root 12.0076 17.0399 7.54531 -154.157 -2.28306 177.144
lowerback -32.9569 -2.49448 -7.49299
upperback -3.56522 -1.80813 -0.304068
thorax 13.1007 -1.72353 2.8269
lowerneck -4.17855 -0.536749 -0.862525
upperneck -1.33708 -0.752334 1.96073
head 0.290283 -0.391276 0.727839
rclavicle 3.40419e-015 2.38542e-015
rhumerus -38.7434 -24.4401 -74.787
rradius 22.443
rwrist 5.20449
rhand -5.07712 -52.0393
rfingers 7.12502
rthumb 20.7193 -80.9533
lclavicle 3.40419e-015 2.38542e-015
lhumerus -32.9069 15.2064 74.0845
lradius 12.0384
lwrist -18.1971
lhand -21.6301 -11.3961
lfingers 7.12502
lthumb 4.76598 18.5303
rfemur -19.4636 5.20075 20.7869
rtibia 9.86353
rfoot -24.3607 -5.34434
rtoes -17.8053
lfemur -19.7093 -6.75988 -23.7219
ltibia 8.10838
lfoot -9.24309 -4.94187
ltoes -16.1073
449
root 12.0027 17.0392 7.54726 -154.152 -2.28502 177.198
lowerback -32.9341 -2.51718 -7.49864
upperback -3.57294 -1.84352 -0.253119
thorax 13.0885 -1.73952 2.87161
lowerneck -4.23123 -0.522089 -0.918003
upperneck -1.49591 -0.735566 2.11109
head 0.251406 -0.385391 0.78369
rclavicle 7.1811e-015 1.82882e-014
rhumerus -39.0363 -25.0022 -74.1574
rradius 22.1267
rwrist 5.72546
rhand -4.8081 -52.0569
rfingers 7.12502
rthumb 20.9778 -80.9425
lclavicle 7.1811e-015 1.82882e-014
lhumerus -33.1176 15.1071 73.9891
lradius 11.9091
lwrist -18.0325
lhand -21.7406 -11.1863
lfingers 7.12502
lthumb 4.65921 18.7424
rfemur -19.49 5.31742 20.8323
rtibia 9.9244
rfoot -24.41 -5.46306
rtoes -17.9178
lfemur -19.7053 -6.71506 -23.6764
ltibia 8.07516
lfoot -9.1429 -4.98674
ltoes -15.2688
450
root 11.9986 17.0396 7.54996 -154.115 -2.24075 177.225
lowerback -32.969 -2.55067 -7.55019
upperback -3.56591 -1.87241 -0.193832
thorax 13.1168 -1.75653 2.95005
lowerneck -4.29793 -0.530695 -0.870268
upperneck -1.55126 -0.75144 2.07664
head 0.245167 -0.39507 0.764692
rclavicle -1.87355e-014 1.23246e-014
rhumerus -39.2061 -25.671 -73.4477
rradius 21.6518
rwrist 6.60762
rhand -4.41519 -51.7756
rfingers 7.12502
rthumb 21.3552 -80.6188
lclavicle -1.87355e-014 1.23246e-014
lhumerus -33.3432 15.6795 73.587
lradius 11.7013
lwrist -18.6828
lhand -21.6105 -10.6848
lfingers 7.12502
lthumb 4.78488 19.2412
rfemur -19.5931 5.49482 20.8215
rtibia 10.0304
rfoot -24.3986 -5.68368
rtoes -18.0897
lfemur -19.7488 -6.62346 -23.6735
ltibia 8.02601
lfoot -9.06491 -5.0062
ltoes -15.0518
451
root 11.9932 17.0386 7.55296 -154.017 -2.15527 177.248
lowerback -33.0772 -2.55384 -7.54841
upperback -3.56355 -1.87565 -0.184361
thorax 13.1642 -1.76198 2.95368
lowerneck -4.32863 -0.531842 -0.863721
upperneck -1.56817 -0.755642 2.18691
head 0.245859 -0.397615 0.797596
rclavicle 2.23757e-014 2.74323e-014
rhumerus -39.436 -26.5353 -72.6395
rradius 21.0788
rwrist 7.70404
rhand -4.0828 -51.9777
rfingers 7.12502
rthumb 21.6744 -80.7845
lclavicle 2.23757e-014 2.74323e-014
lhumerus -33.6347 16.8325 72.7592
lradius 11.4122
lwrist -20.0319
lhand -21.4831 -10.3115
lfingers 7.12502
lthumb 4.90787 19.6117
rfemur -19.7856 5.64772 20.7807
rtibia 10.1518
rfoot -24.4054 -5.77212
rtoes -17.7801
lfemur -19.8266 -6.44437 -23.709
ltibia 7.8803
lfoot -8.99527 -5.06345
ltoes -16.1949
